<?xml version="1.0" encoding="UTF-8" standalone="no"?><!DOCTYPE svg PUBLIC "-//W3C//DTD SVG 1.1//EN" "http://www.w3.org/Graphics/SVG/1.1/DTD/svg11.dtd"><svg width="100%" height="100%" viewBox="0 0 250 30" version="1.1" xmlns="http://www.w3.org/2000/svg" xmlns:xlink="http://www.w3.org/1999/xlink" xml:space="preserve" xmlns:serif="http://www.serif.com/" style="fill-rule:evenodd;clip-rule:evenodd;stroke-linejoin:round;stroke-miterlimit:1.41421;"><g id="g1003"><g id="g922"><path id="path8" d="M25.603,25.647l-3.659,0l-3.46,-12.149c-0.149,-0.532 -0.335,-1.297 -0.558,-2.296c-0.223,-0.999 -0.359,-1.693 -0.407,-2.081c-0.095,0.596 -0.247,1.366 -0.454,2.312c-0.207,0.946 -0.383,1.653 -0.526,2.121l-3.372,12.093l-3.612,0l-2.63,-10.204l-2.679,-10.172l3.404,0l2.91,11.862c0.408,1.664 0.732,3.349 0.972,5.046c0.101,-0.792 0.256,-1.674 0.463,-2.647c0.207,-0.972 0.393,-1.769 0.558,-2.391l3.316,-11.902l3.3,0l3.404,11.958c0.436,1.632 0.779,3.287 1.029,4.958c0.216,-1.695 0.551,-3.373 1.004,-5.022l2.902,-11.846l3.372,0l-5.277,20.36Z" style="fill:#fff;fill-rule:nonzero;"/><path id="path10" d="M47.852,25.647l-11.519,0l0,-20.376l11.519,0l0,2.814l-8.195,0l0,5.58l7.677,0l0,2.79l-7.677,0l0,6.378l8.195,0l0,2.814Z" style="fill:#fff;fill-rule:nonzero;"/><path id="path12" d="M54.827,5.271l6.051,0c2.806,0 4.833,0.409 6.082,1.228c1.271,0.861 1.987,2.342 1.874,3.874c0.039,1.063 -0.285,2.109 -0.917,2.965c-0.66,0.817 -1.607,1.35 -2.647,1.491l0,0.136c1.216,0.144 2.344,0.707 3.189,1.594c0.706,0.908 1.065,2.039 1.013,3.189c0.078,1.653 -0.633,3.249 -1.914,4.296c-1.544,1.12 -3.429,1.67 -5.333,1.555l-7.398,0l0,-20.328Zm3.333,8.418l3.188,0c1.061,0.08 2.122,-0.15 3.053,-0.662c0.696,-0.536 1.065,-1.398 0.973,-2.272c0.062,-0.828 -0.336,-1.626 -1.036,-2.072c-1.023,-0.498 -2.158,-0.718 -3.293,-0.638l-2.885,0l0,5.644Zm0,2.703l0,6.449l3.539,0c1.121,0.085 2.239,-0.195 3.189,-0.797c0.731,-0.623 1.114,-1.564 1.028,-2.52c0.079,-0.93 -0.332,-1.838 -1.084,-2.391c-0.995,-0.592 -2.145,-0.87 -3.3,-0.797l-3.372,0.056Z" style="fill:#fff;fill-rule:nonzero;"/><path id="path14" d="M90.868,25.647l-2.535,-6.481l-8.171,0l-2.511,6.481l-2.392,0l8.052,-20.472l1.993,0l8.011,20.456l-2.447,0.016Zm-3.277,-8.61l-2.391,-6.313c-0.309,-0.798 -0.625,-1.778 -0.949,-2.942c-0.226,1.007 -0.511,2 -0.853,2.973l-2.391,6.314l6.584,-0.032Z" style="fill:#fff;fill-rule:nonzero;"/><path id="path16" d="M111.898,20.226c0.073,1.632 -0.657,3.2 -1.954,4.193c-1.547,1.078 -3.411,1.609 -5.293,1.507c-1.906,0.094 -3.809,-0.224 -5.58,-0.933l0,-2.28c0.883,0.354 1.798,0.621 2.734,0.797c0.962,0.201 1.943,0.303 2.926,0.303c1.255,0.088 2.507,-0.228 3.571,-0.9c0.789,-0.583 1.239,-1.523 1.196,-2.504c0.028,-0.607 -0.119,-1.211 -0.422,-1.738c-0.366,-0.525 -0.853,-0.954 -1.419,-1.251c-0.973,-0.513 -1.986,-0.946 -3.03,-1.292c-1.532,-0.449 -2.929,-1.271 -4.065,-2.391c-0.845,-1.018 -1.279,-2.314 -1.22,-3.635c-0.051,-1.461 0.609,-2.859 1.77,-3.747c1.355,-0.984 3.006,-1.476 4.679,-1.395c1.917,-0.02 3.818,0.36 5.58,1.116l-0.741,2.065c-1.547,-0.678 -3.214,-1.038 -4.903,-1.061c-1.041,-0.062 -2.075,0.218 -2.941,0.798c-0.7,0.526 -1.098,1.365 -1.06,2.24c-0.026,0.603 0.11,1.203 0.39,1.738c0.328,0.518 0.78,0.945 1.315,1.243c0.904,0.506 1.855,0.926 2.838,1.252c1.637,0.473 3.145,1.313 4.409,2.455c0.836,0.938 1.274,2.165 1.22,3.42Z" style="fill:#fff;fill-rule:nonzero;"/><path id="path18" d="M131.843,20.226c0.073,1.632 -0.657,3.2 -1.953,4.193c-1.547,1.078 -3.411,1.609 -5.293,1.507c-1.906,0.094 -3.809,-0.224 -5.581,-0.933l0,-2.28c0.884,0.354 1.799,0.621 2.735,0.797c0.962,0.201 1.942,0.303 2.925,0.303c1.256,0.088 2.507,-0.228 3.572,-0.9c0.789,-0.583 1.239,-1.523 1.196,-2.504c0.027,-0.607 -0.119,-1.211 -0.423,-1.738c-0.366,-0.525 -0.853,-0.954 -1.419,-1.251c-0.973,-0.513 -1.986,-0.946 -3.029,-1.292c-1.532,-0.449 -2.929,-1.271 -4.066,-2.391c-0.844,-1.018 -1.279,-2.314 -1.22,-3.635c-0.051,-1.461 0.609,-2.859 1.77,-3.747c1.355,-0.984 3.006,-1.476 4.68,-1.395c1.917,-0.02 3.817,0.36 5.58,1.116l-0.741,2.065c-1.548,-0.678 -3.215,-1.038 -4.903,-1.061c-1.041,-0.062 -2.075,0.218 -2.942,0.798c-0.7,0.526 -1.097,1.365 -1.06,2.24c-0.026,0.603 0.11,1.203 0.391,1.738c0.327,0.518 0.779,0.945 1.315,1.243c0.904,0.506 1.854,0.926 2.838,1.252c1.637,0.473 3.144,1.313 4.408,2.455c0.837,0.938 1.274,2.165 1.22,3.42Z" style="fill:#fff;fill-rule:nonzero;"/><path id="path20" d="M151.645,25.647l-11.352,0l0,-20.376l11.36,0l0,2.104l-8.992,0l0,6.569l8.442,0l0,2.089l-8.442,0l0,7.477l8.992,0l-0.008,2.137Z" style="fill:#fff;fill-rule:nonzero;"/><path id="path22" d="M169.462,25.647l-6.912,-18.08l-0.111,0c0.127,1.429 0.194,3.13 0.199,5.102l0,12.962l-2.184,0l0,-20.36l3.571,0l6.449,16.804l0.112,0l6.481,-16.804l3.54,0l0,20.376l-2.392,0l0,-13.13c0,-1.504 0.066,-3.138 0.199,-4.902l-0.111,0l-6.968,18.032l-1.873,0Z" style="fill:#fff;fill-rule:nonzero;"/><path id="path24" d="M190.492,5.271l5.755,0c2.705,0 4.661,0.404 5.868,1.212c1.236,0.867 1.926,2.327 1.809,3.834c0.042,1.087 -0.32,2.152 -1.012,2.989c-0.774,0.838 -1.819,1.377 -2.95,1.523l0,0.136c3.093,0.531 4.64,2.158 4.64,4.878c0.082,1.631 -0.603,3.211 -1.85,4.265c-1.487,1.103 -3.318,1.645 -5.165,1.531l-7.111,0l0.016,-20.368Zm2.391,8.721l3.898,0c1.256,0.097 2.513,-0.181 3.612,-0.797c0.787,-0.644 1.201,-1.642 1.1,-2.655c0.077,-0.985 -0.396,-1.937 -1.228,-2.471c-1.209,-0.606 -2.557,-0.881 -3.906,-0.797l-3.484,0l0.008,6.72Zm0,2.009l0,7.621l4.249,0c1.309,0.092 2.613,-0.243 3.715,-0.957c0.874,-0.735 1.339,-1.851 1.244,-2.989c0.079,-1.086 -0.403,-2.14 -1.276,-2.79c-1.176,-0.678 -2.529,-0.989 -3.882,-0.893l-4.05,0.008Z" style="fill:#fff;fill-rule:nonzero;"/><path id="path26" d="M213.267,25.647l0,-20.376l2.392,0l0,18.239l8.992,0l0,2.145l-11.384,-0.008Z" style="fill:#fff;fill-rule:nonzero;"/><path id="path28" d="M237.541,15.459l5.437,-10.188l2.567,0l-6.8,12.468l0,7.9l-2.391,0l0,-7.789l-6.785,-12.587l2.591,0l5.381,10.196Z" style="fill:#fff;fill-rule:nonzero;"/></g></g></svg>